<svg xmlns="http://www.w3.org/2000/svg" width="1584" height="396" viewBox="0 0 1584 396">
  <rect width="1584" height="396" fill="#09090b"/>
  <g transform="translate(110.9 144.9) scale(3.8156)" fill="none" stroke="#fafafa" stroke-width="1.8" stroke-linecap="round" stroke-linejoin="round">
    <path d="M3 7a2 2 0 0 1 2-2h4l2 2h8a2 2 0 0 1 2 2v9a2 2 0 0 1-2 2H5a2 2 0 0 1-2-2Z"/>
    <path d="M3 11h18"/>
  </g>
  <g transform="translate(110.9 144.9) scale(3.8156)"><circle cx="20.6" cy="19.4" r="3" fill="#09090b"/><circle cx="20.6" cy="19.4" r="1.9" fill="#10b981"/></g>
  <text x="233.0" y="216.3" font-family="ui-monospace, SFMono-Regular, Menlo, monospace" font-size="116.0" font-weight="600" letter-spacing="-2.32" fill="#fafafa">foldrun</text>
  <text x="110.9" y="267.6" font-family="-apple-system, BlinkMacSystemFont, Helvetica, Arial, sans-serif" font-size="24.4" fill="#a1a1aa">Agents are just folders. Write them, run them, deploy them.</text>
  <circle cx="906.0" cy="196.2" r="9.0" fill="#10b981"/>
  <text x="1473.1" y="210.5" text-anchor="end" font-family="ui-monospace, SFMono-Regular, Menlo, monospace" font-size="34.6" xml:space="preserve"><tspan fill="#52525b">seo-desk/flows/</tspan><tspan fill="#10b981">rankings.md</tspan></text>
</svg>