<svg xmlns="http://www.w3.org/2000/svg" width="1200" height="600" viewBox="0 0 1200 600">
  <defs>
    <linearGradient id="under" x1="0" y1="0" x2="1" y2="1">
      <stop offset="0" stop-color="#34d399"/><stop offset="1" stop-color="#046c50"/>
    </linearGradient>
    <linearGradient id="shade" x1="1" y1="0" x2="0" y2="1">
      <stop offset="0" stop-color="#000" stop-opacity=".5"/><stop offset="1" stop-color="#000" stop-opacity="0"/>
    </linearGradient>
  </defs>
  <rect width="1200" height="600" fill="#09090b"/>
  <g>
    <path d="M1020 0H1200V180Z" fill="url(#under)"/>
    <path d="M1020 0H1200V180Z" fill="url(#shade)" opacity=".4"/>
    <path d="M1020 0 1200 180" stroke="#04352a" stroke-width="1.5" opacity=".8"/>
  </g>
  <g transform="translate(84.0 199.2) scale(3.4875)" fill="none" stroke="#fafafa" stroke-width="1.8" stroke-linecap="round" stroke-linejoin="round">
    <path d="M3 7a2 2 0 0 1 2-2h4l2 2h8a2 2 0 0 1 2 2v9a2 2 0 0 1-2 2H5a2 2 0 0 1-2-2Z"/>
    <path d="M3 11h18"/>
  </g>
  <circle cx="155.8" cy="253.6" r="10.5" fill="#09090b"/>
  <circle cx="155.8" cy="253.6" r="6.6" fill="#10b981"/>
  <text x="195.6" y="264.5" font-family="ui-monospace, SFMono-Regular, Menlo, monospace" font-size="106.0" font-weight="600" letter-spacing="-2.12" fill="#fafafa">foldrun</text>
  <text x="84.0" y="341.7" font-family="-apple-system, BlinkMacSystemFont, Helvetica, Arial, sans-serif" font-size="33.6" fill="#fafafa" opacity="0.92">Agents are just folders.</text>
  <text x="84.0" y="392.1" font-family="-apple-system, BlinkMacSystemFont, Helvetica, Arial, sans-serif" font-size="33.6" fill="#a1a1aa">Write them, run them, deploy them.</text>
  <g>
    <rect x="636.1" y="162.4" width="479.9" height="275.3" rx="15.1" fill="#0d0d10" stroke="#27272a" stroke-width="1.0"/>
    <g>
      
      <circle cx="665.0" cy="196.8" r="6.9" fill="#3f3f46"/>
      <text x="682.9" y="205.2" font-family="ui-monospace, SFMono-Regular, Menlo, monospace" font-size="23.4" fill="#d4d4d8">research</text>
      
    </g>
    <g>
      <line x1="665.0" y1="231.2" x2="1087.1" y2="231.2" stroke="#1c1c20" stroke-width="1"/>
      <circle cx="665.0" cy="265.6" r="6.9" fill="#3f3f46"/>
      <text x="682.9" y="274.0" font-family="ui-monospace, SFMono-Regular, Menlo, monospace" font-size="23.4" fill="#d4d4d8">draft</text>
      
    </g>
    <g>
      <line x1="665.0" y1="300.0" x2="1087.1" y2="300.0" stroke="#1c1c20" stroke-width="1"/>
      <circle cx="665.0" cy="334.4" r="6.9" fill="#10b981"/>
      <text x="682.9" y="342.8" font-family="ui-monospace, SFMono-Regular, Menlo, monospace" font-size="23.4" fill="#10b981">approve</text>
      <text x="1087.1" y="341.9" text-anchor="end" font-family="ui-monospace, SFMono-Regular, Menlo, monospace" font-size="17.3" fill="#10b981" opacity="0.8">waits for you</text>
    </g>
    <g>
      <line x1="665.0" y1="368.8" x2="1087.1" y2="368.8" stroke="#1c1c20" stroke-width="1"/>
      <circle cx="665.0" cy="403.2" r="6.9" fill="#3f3f46"/>
      <text x="682.9" y="411.7" font-family="ui-monospace, SFMono-Regular, Menlo, monospace" font-size="23.4" fill="#d4d4d8">publish</text>
      
    </g>
  </g>
</svg>