<svg xmlns="http://www.w3.org/2000/svg" width="1500" height="500" viewBox="0 0 1500 500">
  <defs>
    <linearGradient id="under" x1="0" y1="0" x2="1" y2="1">
      <stop offset="0" stop-color="#34d399"/><stop offset="1" stop-color="#046c50"/>
    </linearGradient>
    <linearGradient id="shade" x1="1" y1="0" x2="0" y2="1">
      <stop offset="0" stop-color="#000" stop-opacity=".5"/><stop offset="1" stop-color="#000" stop-opacity="0"/>
    </linearGradient>
  </defs>
  <rect width="1500" height="500" fill="#09090b"/>
  <g>
    <path d="M1350 0H1500V150Z" fill="url(#under)"/>
    <path d="M1350 0H1500V150Z" fill="url(#shade)" opacity=".4"/>
    <path d="M1350 0 1500 150" stroke="#04352a" stroke-width="1.5" opacity=".8"/>
  </g>
  <g transform="translate(105.0 143.3) scale(2.6042)" fill="none" stroke="#fafafa" stroke-width="1.8" stroke-linecap="round" stroke-linejoin="round">
    <path d="M3 7a2 2 0 0 1 2-2h4l2 2h8a2 2 0 0 1 2 2v9a2 2 0 0 1-2 2H5a2 2 0 0 1-2-2Z"/>
    <path d="M3 11h18"/>
  </g>
  <circle cx="158.6" cy="183.9" r="7.8" fill="#09090b"/>
  <circle cx="158.6" cy="183.9" r="4.9" fill="#10b981"/>
  <text x="188.3" y="192.0" font-family="ui-monospace, SFMono-Regular, Menlo, monospace" font-size="79.2" font-weight="600" letter-spacing="-1.58" fill="#fafafa">foldrun</text>
  <text x="105.0" y="270.6" font-family="-apple-system, BlinkMacSystemFont, Helvetica, Arial, sans-serif" font-size="34.2" fill="#fafafa" opacity="0.92">Agents are just folders.</text>
  <text x="105.0" y="321.8" font-family="-apple-system, BlinkMacSystemFont, Helvetica, Arial, sans-serif" font-size="34.2" fill="#a1a1aa">Write them, run them, deploy them.</text>
  <g>
    <rect x="795.1" y="123.0" width="599.9" height="186.0" rx="10.2" fill="#0d0d10" stroke="#27272a" stroke-width="1.0"/>
    <g>
      
      <circle cx="814.7" cy="146.3" r="4.7" fill="#3f3f46"/>
      <text x="826.8" y="151.9" font-family="ui-monospace, SFMono-Regular, Menlo, monospace" font-size="15.8" fill="#d4d4d8">research</text>
      
    </g>
    <g>
      <line x1="814.7" y1="169.5" x2="1375.5" y2="169.5" stroke="#1c1c20" stroke-width="1"/>
      <circle cx="814.7" cy="192.8" r="4.7" fill="#3f3f46"/>
      <text x="826.8" y="198.4" font-family="ui-monospace, SFMono-Regular, Menlo, monospace" font-size="15.8" fill="#d4d4d8">draft</text>
      
    </g>
    <g>
      <line x1="814.7" y1="216.0" x2="1375.5" y2="216.0" stroke="#1c1c20" stroke-width="1"/>
      <circle cx="814.7" cy="239.3" r="4.7" fill="#10b981"/>
      <text x="826.8" y="244.9" font-family="ui-monospace, SFMono-Regular, Menlo, monospace" font-size="15.8" fill="#10b981">approve</text>
      <text x="1375.5" y="244.3" text-anchor="end" font-family="ui-monospace, SFMono-Regular, Menlo, monospace" font-size="11.7" fill="#10b981" opacity="0.8">waits for you</text>
    </g>
    <g>
      <line x1="814.7" y1="262.5" x2="1375.5" y2="262.5" stroke="#1c1c20" stroke-width="1"/>
      <circle cx="814.7" cy="285.8" r="4.7" fill="#3f3f46"/>
      <text x="826.8" y="291.4" font-family="ui-monospace, SFMono-Regular, Menlo, monospace" font-size="15.8" fill="#d4d4d8">publish</text>
      
    </g>
  </g>
</svg>