<svg xmlns="http://www.w3.org/2000/svg" width="2560" height="1440" viewBox="0 0 2560 1440">
  <rect width="2560" height="1440" fill="#09090b"/>
  <g transform="translate(599.4 623.6) scale(3.4516)" fill="none" stroke="#fafafa" stroke-width="1.8" stroke-linecap="round" stroke-linejoin="round">
    <path d="M3 7a2 2 0 0 1 2-2h4l2 2h8a2 2 0 0 1 2 2v9a2 2 0 0 1-2 2H5a2 2 0 0 1-2-2Z"/>
    <path d="M3 11h18"/>
  </g>
  <g transform="translate(599.4 623.6) scale(3.4516)"><circle cx="20.6" cy="19.4" r="3" fill="#09090b"/><circle cx="20.6" cy="19.4" r="1.9" fill="#10b981"/></g>
  <text x="709.8" y="688.2" font-family="ui-monospace, SFMono-Regular, Menlo, monospace" font-size="104.9" font-weight="600" letter-spacing="-2.10" fill="#fafafa">foldrun</text>
  <text x="599.4" y="766.6" font-family="-apple-system, BlinkMacSystemFont, Helvetica, Arial, sans-serif" font-size="34.1" fill="#fafafa" opacity="0.92">Agents are just folders.</text>
  <text x="599.4" y="817.8" font-family="-apple-system, BlinkMacSystemFont, Helvetica, Arial, sans-serif" font-size="34.1" fill="#a1a1aa">Write them, run them, deploy them.</text>
  <text x="599.4" y="879.2" font-family="ui-monospace, SFMono-Regular, Menlo, monospace" font-size="28.0" letter-spacing="0.68" fill="#10b981">foldrun.io</text>
  <g>
    <rect x="1275.1" y="526.6" width="777.5" height="386.8" rx="18.6" fill="#0d0d10" stroke="#27272a" stroke-width="1.9"/>
    <line x1="1275.1" y1="589.8" x2="2052.6" y2="589.8" stroke="#1c1c20"/>
    <circle cx="1308.6" cy="558.2" r="5.4" fill="#2f2f36"/>
    <circle cx="1330.7" cy="558.2" r="5.4" fill="#2f2f36"/>
    <circle cx="1352.8" cy="558.2" r="5.4" fill="#2f2f36"/>
    <text x="1374.9" y="567.1" font-family="ui-monospace, SFMono-Regular, Menlo, monospace" font-size="24.5" fill="#a1a1aa">seo-desk</text>
    <text x="2019.2" y="567.1" text-anchor="end" font-family="ui-monospace, SFMono-Regular, Menlo, monospace" font-size="21.1" fill="#10b981">schedule · Wed 05:00</text>
    <text x="1308.6" y="629.6" font-family="ui-monospace, SFMono-Regular, Menlo, monospace" font-size="24.5" xml:space="preserve"><tspan fill="#3f3f46"></tspan><tspan fill="#e4e4e7">seo-desk/</tspan></text>
    <text x="1308.6" y="666.8" font-family="ui-monospace, SFMono-Regular, Menlo, monospace" font-size="24.5" xml:space="preserve"><tspan fill="#3f3f46">├── </tspan><tspan fill="#e4e4e7">agents/</tspan></text>
    <text x="1308.6" y="704.0" font-family="ui-monospace, SFMono-Regular, Menlo, monospace" font-size="24.5" xml:space="preserve"><tspan fill="#3f3f46">│   ├── </tspan><tspan fill="#8a8a93">rival-watcher/agent.md</tspan></text>
    <text x="1308.6" y="741.2" font-family="ui-monospace, SFMono-Regular, Menlo, monospace" font-size="24.5" xml:space="preserve"><tspan fill="#3f3f46">│   └── </tspan><tspan fill="#8a8a93">reporter/agent.md</tspan></text>
    <text x="1308.6" y="778.4" font-family="ui-monospace, SFMono-Regular, Menlo, monospace" font-size="24.5" xml:space="preserve"><tspan fill="#3f3f46">├── </tspan><tspan fill="#e4e4e7">flows/</tspan></text>
    <rect x="1284.4" y="788.8" width="758.9" height="37.9" rx="8.2" fill="#10b981" opacity=".10"/><text x="1308.6" y="815.6" font-family="ui-monospace, SFMono-Regular, Menlo, monospace" font-size="24.5" xml:space="preserve"><tspan fill="#3f3f46">│   └── </tspan><tspan fill="#10b981">rankings.md</tspan></text>
    <text x="1308.6" y="852.8" font-family="ui-monospace, SFMono-Regular, Menlo, monospace" font-size="24.5" xml:space="preserve"><tspan fill="#3f3f46">└── </tspan><tspan fill="#e4e4e7">tools/</tspan></text>
    <text x="1308.6" y="890.0" font-family="ui-monospace, SFMono-Regular, Menlo, monospace" font-size="24.5" xml:space="preserve"><tspan fill="#3f3f46">    └── </tspan><tspan fill="#8a8a93">serp_check.py</tspan></text>
  </g>
</svg>